<?xml version="1.0" ?><!DOCTYPE svg  PUBLIC '-//W3C//DTD SVG 1.1//EN'  'http://www.w3.org/Graphics/SVG/1.1/DTD/svg11.dtd'><svg height="100mm" style="shape-rendering:geometricPrecision; text-rendering:geometricPrecision; image-rendering:optimizeQuality; fill-rule:evenodd; clip-rule:evenodd" viewBox="0 0 100 100" width="100mm" xml:space="preserve" xmlns="http://www.w3.org/2000/svg" xmlns:xlink="http://www.w3.org/1999/xlink"><defs><style type="text/css">
   <![CDATA[
    .fil0 {fill:#008DD2}
   ]]>
  </style></defs><g id="Ebene_x0020_1"><path class="fil0" d="M21.2737 78.7261c-15.8649,-15.8649 -15.8648,-41.5873 0.0003,-57.4523 15.8648,-15.865 41.5872,-15.865 57.452,0 15.8651,15.865 15.8651,41.5873 0.0001,57.4522 -15.8649,15.865 -41.5874,15.8652 -57.4524,0.0001zm-2.2094 2.2097c-17.0852,-17.0854 -17.0852,-44.786 0.0001,-61.8715 17.0854,-17.0851 44.786,-17.0851 61.8714,0 17.0852,17.0854 17.0851,44.786 -0.0001,61.8713 -17.0855,17.0853 -44.786,17.0854 -61.8714,0.0002zm52.8105 -30.9358l0 -1.7751c0,-3.7779 -0.438,-7.5534 -0.438,-7.5534 0,0 -0.4272,-3.218 -1.7387,-4.635 -1.6643,-1.8569 -3.5286,-1.8685 -4.3834,-1.9732 -6.1221,-0.4749 -15.3052,-0.4749 -15.3052,-0.4749l-0.0205 0c0,0 -9.1831,0 -15.3048,0.4749 -0.8548,0.1047 -2.7172,0.1163 -4.3834,1.9732 -1.3103,1.417 -1.7383,4.635 -1.7383,4.635 0,0 -0.4373,3.7755 -0.4373,7.5522l0 1.7763 0 1.7763c0,3.7767 0.4373,7.5522 0.4373,7.5522 0,0 0.428,3.218 1.7383,4.635 1.6662,1.8569 3.5286,1.8685 4.3834,1.9732 6.1217,0.4749 15.3048,0.4749 15.3048,0.4749l0.0205 0c0,0 9.1831,0 15.3052,-0.4749 0.8548,-0.1047 2.7191,-0.1163 4.3834,-1.9732 1.3115,-1.417 1.7387,-4.635 1.7387,-4.635 0,0 0.438,-3.7755 0.438,-7.5534l0 -1.7751zm-27.3384 -8.2058l0 16.4108 13.6758 -8.2054 -13.6758 -8.2054z"/></g></svg>